<svg width="171" height="454" viewBox="0 0 171 454" fill="none" xmlns="http://www.w3.org/2000/svg">
<g clip-path="url(#clip0_413:92)">
<path d="M75.3137 90.3086C80.6912 87.5322 85.7124 84.1823 90.3812 80.3702C91.063 79.7893 90.0489 78.8477 89.3671 79.4286C84.8085 83.1811 79.8405 86.4456 74.5733 89.1624C73.7728 89.5522 74.5142 90.7262 75.3137 90.3086Z" fill="white"/>
<path d="M62.1499 81.1065C63.1094 74.6595 64.6323 68.277 66.6663 62.0724C66.9182 61.2272 65.5605 60.9108 65.2806 61.7569C63.2466 67.9616 61.7517 74.3431 60.7642 80.791C60.6544 81.6872 62.012 82.0036 62.1499 81.1065Z" fill="white"/>
<path d="M80.0323 106.128C86.3242 107.142 92.5881 108.156 98.88 109.169C99.7546 109.307 100.102 107.956 99.1989 107.82C92.907 106.806 86.6431 105.792 80.3512 104.779C79.4757 104.613 79.1288 105.964 80.0323 106.128Z" fill="white"/>
</g>
<g clip-path="url(#clip1_413:92)">
<path d="M-59.4535 422.438C-32.0846 417.951 -6.20735 406.168 15.748 389.356C38.1294 372.231 56.7788 349.629 68.3672 323.859C74.3815 310.471 78.4919 295.775 77.434 280.997C76.3691 266.111 70.1248 252.012 62.2802 239.473C54.3013 226.681 44.18 214.752 31.9069 205.882C20.7282 197.784 6.98282 192.191 -7.02159 193.655C-28.7051 195.932 -49.6181 219.607 -39.1402 241.467C-36.23 247.519 -31.4469 252.449 -26.1337 256.461C-20.3782 260.799 -13.7737 264.332 -6.81663 266.285C6.54927 270.049 19.9461 266.485 31.113 258.661C54.4646 242.341 67.3153 213.173 70.4201 185.548C73.6613 156.778 66.1866 127.837 51.5261 103.038C37.5228 79.2824 17.3242 59.2258 -6.66399 45.5511C-29.8385 32.3462 -56.7106 25.1215 -83.4371 27.0405C-89.9007 27.5063 -96.3704 28.5281 -102.665 30.0356C-103.602 30.2642 -103.229 31.739 -102.277 31.4842C-76.8332 25.3616 -50.0707 28.2905 -25.855 37.934C-1.44045 47.6574 20.1235 63.955 36.6521 84.3064C54.0671 105.729 66.2559 131.9 69.03 159.526C71.8919 187.727 64.8353 217.408 47.6549 240.194C39.7206 250.724 29.2007 260.216 16.4742 264.376C2.46045 268.948 -11.7565 264.657 -23.5289 256.496C-34.1019 249.168 -42.7361 237.572 -39.9878 224.082C-37.7577 213.127 -29.3742 203.941 -19.5876 198.993C6.4008 185.804 34.2996 206.284 50.3851 225.645C59.9855 237.204 68.2097 250.662 72.7386 265.065C77.1636 279.162 76.7414 293.715 72.6523 307.829C68.746 321.384 62.1027 334.164 54.3288 345.87C46.8083 357.199 37.9572 367.62 28.0208 376.889C8.43491 395.173 -15.3466 409.146 -41.1043 416.661C-47.2954 418.474 -53.5713 419.887 -59.947 420.928C-60.8012 421.135 -60.4126 422.583 -59.4535 422.438Z" fill="white"/>
</g>
<defs>
<clipPath id="clip0_413:92">
<rect x="60.1068" y="61.4585" width="38" height="49" rx="2" transform="rotate(-1.94609 60.1068 61.4585)" fill="white"/>
</clipPath>
<clipPath id="clip1_413:92">
<rect x="-5.65649" y="453.707" width="296" height="353" rx="2" transform="rotate(-150 -5.65649 453.707)" fill="white"/>
</clipPath>
</defs>
</svg>
